<svg width="38" height="38" viewBox="0 0 38 38" fill="none" xmlns="http://www.w3.org/2000/svg">
    <path d="M9.10416 11.0833C8.78922 11.0833 8.48717 11.2085 8.26447 11.4312C8.04178 11.6539 7.91666 11.9559 7.91666 12.2708C7.91666 12.5858 8.04178 12.8878 8.26447 13.1105C8.48717 13.3332 8.78922 13.4583 9.10416 13.4583H15.4375C15.7524 13.4583 16.0545 13.3332 16.2772 13.1105C16.4999 12.8878 16.625 12.5858 16.625 12.2708C16.625 11.9559 16.4999 11.6539 16.2772 11.4312C16.0545 11.2085 15.7524 11.0833 15.4375 11.0833H9.10416Z" fill="white"></path>
    <path fill-rule="evenodd" clip-rule="evenodd" d="M33.5477 12.673C33.4495 12.6667 33.3418 12.6667 33.231 12.6667H28.8404C25.2447 12.6667 22.1667 15.4153 22.1667 19C22.1667 22.5847 25.2447 25.3333 28.8404 25.3333H33.231C33.3418 25.3333 33.4495 25.3333 33.5477 25.327C35.0091 25.2383 36.3011 24.1284 36.4103 22.5767C36.4167 22.4754 36.4167 22.3662 36.4167 22.2648V15.7352C36.4167 15.6338 36.4167 15.5246 36.4103 15.4232C36.3011 13.8716 35.0091 12.7632 33.5477 12.673ZM28.4541 20.6894C29.3787 20.6894 30.1292 19.9326 30.1292 19C30.1292 18.0658 29.3787 17.3106 28.4541 17.3106C27.5278 17.3106 26.7757 18.0674 26.7757 19C26.7757 19.9342 27.5278 20.6894 28.4541 20.6894Z" fill="#9A1BCA"></path>
    <path opacity="0.5" d="M33.4717 12.6698C33.4717 10.7999 33.402 8.79383 32.2082 7.35775C32.0915 7.21707 31.9684 7.08181 31.8392 6.95242C30.6533 5.76808 29.1507 5.24242 27.2951 4.99225C25.4901 4.75 23.1863 4.75 20.2762 4.75H16.9322C14.022 4.75 11.7167 4.75 9.91166 4.99225C8.056 5.24242 6.55341 5.76808 5.3675 6.95242C4.18316 8.13833 3.6575 9.64092 3.40733 11.4966C3.16666 13.3016 3.16666 15.6053 3.16666 18.5155V18.6928C3.16666 21.603 3.16666 23.9083 3.40891 25.7118C3.65908 27.5674 4.18475 29.07 5.36908 30.2559C6.555 31.4403 8.05758 31.9659 9.91325 32.2161C11.7182 32.4583 14.022 32.4583 16.9322 32.4583H20.2762C23.1863 32.4583 25.4917 32.4583 27.2951 32.2161C29.1507 31.9659 30.6533 31.4403 31.8392 30.2559C32.1547 29.9395 32.434 29.589 32.6721 29.2109C33.3846 28.0709 33.4701 26.6744 33.4701 25.3317L33.2326 25.3333H28.8404C25.2447 25.3333 22.1667 22.5847 22.1667 19C22.1667 15.4153 25.2447 12.6667 28.8404 12.6667H33.231C33.3133 12.6667 33.3957 12.6667 33.4717 12.6698Z" fill="#A11DCF">
    </path>
</svg>